HIERARCHY
ROOT hip
{
	OFFSET 0.000000 0.000000 0.000000 
	CHANNELS 6 Xposition Yposition Zposition Xrotation Zrotation Yrotation
	JOINT abdomen
	{
		OFFSET 0.000000 3.402643 0.000000 
		CHANNELS 3 Xrotation Zrotation Yrotation
		JOINT chest
		{
			OFFSET 0.000000 8.438565 -0.680529 
			CHANNELS 3 Xrotation Zrotation Yrotation
			JOINT neck
			{
				OFFSET 0.000000 10.207942 -0.272212 
				CHANNELS 3 Xrotation Zrotation Yrotation
				JOINT head
				{
					OFFSET 0.000000 3.130431 0.000000 
					CHANNELS 3 Xrotation Zrotation Yrotation
					End Site
					{
						OFFSET 0.000000 3.130435 0.000000 
					}
				}
			}
			JOINT lCollar
			{
				OFFSET 3.470700 6.669187 -0.816635 
				CHANNELS 3 Yrotation Zrotation Xrotation
				JOINT lShldr
				{
					OFFSET 3.198488 0.000000 0.000000 
					CHANNELS 3 Zrotation Yrotation Xrotation
					JOINT lForeArm
					{
						OFFSET 10.139888 0.000000 0.000000 
						CHANNELS 3 Yrotation Zrotation Xrotation
						JOINT lHand
						{
							OFFSET 8.370511 0.000000 0.000000 
							CHANNELS 3 Zrotation Yrotation Xrotation
							End Site
							{
								OFFSET 4.083176 0.000000 0.000000 
							}
						}
					}
				}
			}
			JOINT rCollar
			{
				OFFSET -3.470700 6.669187 -0.816635 
				CHANNELS 3 Yrotation Zrotation Xrotation
				JOINT rShldr
				{
					OFFSET -3.198488 0.000000 0.000000 
					CHANNELS 3 Zrotation Yrotation Xrotation
					JOINT rForeArm
					{
						OFFSET -10.139888 0.000000 0.000000 
						CHANNELS 3 Yrotation Zrotation Xrotation
						JOINT rHand
						{
							OFFSET -8.370511 0.000000 0.000000 
							CHANNELS 3 Zrotation Yrotation Xrotation
							End Site
							{
								OFFSET -4.083176 0.000000 0.000000 
							}
						}
					}
				}
			}
		}
	}
	JOINT lThigh
	{
		OFFSET 5.308129 -1.633274 1.361059 
		CHANNELS 3 Xrotation Zrotation Yrotation
		JOINT lShin
		{
			OFFSET -2.041588 -20.007561 0.000000 
			CHANNELS 3 Xrotation Zrotation Yrotation
			JOINT lFoot
			{
				OFFSET 0.000000 -19.190928 -1.224953 
				CHANNELS 3 Xrotation Yrotation Zrotation
				End Site
				{
					OFFSET 0.000000 -2.449906 4.627600 
				}
			}
		}
	}
	JOINT rThigh
	{
		OFFSET -5.308129 -1.633274 1.361059 
		CHANNELS 3 Xrotation Zrotation Yrotation
		JOINT rShin
		{
			OFFSET 2.041588 -20.007561 0.000000 
			CHANNELS 3 Xrotation Zrotation Yrotation
			JOINT rFoot
			{
				OFFSET 0.000000 -19.190928 -1.224953 
				CHANNELS 3 Xrotation Yrotation Zrotation
				End Site
				{
					OFFSET 0.000000 -2.449906 4.627600 
				}
			}
		}
	}
}
MOTION
Frames: 8
Frame Time: 0.011111
40.383892 69.001556 12.043147 -40.260426 -178.008301 -3.600363 69.100006 1.228693 6.824473 -21.639807 -2.657629 -1.138464 -10.714206 -3.857540 0.438022 -42.592491 3.626952 -7.693057 -3.413843 -5.192144 0.282785 -47.712498 -73.719414 52.634861 -60.730026 9.322374 12.722101 8.524705 12.647240 -4.778699 7.531429 2.224408 -0.396538 43.680012 45.627209 33.712135 73.957932 -8.508471 19.099514 -8.534408 -12.637552 79.671730 -76.375946 8.329548 -3.114687 62.300060 -2.467710 -8.347120 -173.522156 -4.114054 -36.227367 -81.312630 -14.960532 2.321888 56.375214 3.134835 7.801223 173.340530 2.474518 37.433113 
40.390133 69.481384 11.789340 -35.395443 -177.414825 -3.867211 69.801582 0.602073 5.996541 -21.864723 -2.516099 -1.143690 -10.885756 -3.473994 0.367759 -42.773106 3.447853 -7.471758 -3.413843 -5.192144 0.282785 -48.649052 -72.408844 51.709717 -62.702347 9.425152 13.623029 8.524705 12.647240 -2.708388 7.531429 2.224408 -0.396538 44.979988 44.554932 33.340546 75.525177 -8.124085 19.925228 -8.534408 -12.637552 83.099472 -76.388557 7.665077 -2.866827 61.343159 -2.574963 -8.255960 -174.910919 -4.403897 -36.313091 -82.436554 -14.794827 2.656571 54.818047 3.308919 7.645112 172.619064 2.583717 37.527473 
40.404495 69.989624 11.590478 -30.481300 -176.873505 -4.110269 70.387497 -0.010071 5.189529 -22.138453 -2.413773 -1.126750 -10.941151 -3.129812 0.245913 -43.207840 3.234875 -7.448633 -3.413843 -5.192144 0.282785 -49.011826 -71.053261 50.835522 -65.311966 9.449824 14.831382 8.524705 12.647240 -0.286513 7.531429 2.224408 -0.396538 46.134129 43.350201 32.855515 77.209320 -7.610749 20.845730 -8.534408 -12.637552 86.947128 -76.287743 7.109142 -2.573425 60.209461 -2.720036 -8.160342 -176.446564 -4.816659 -36.416862 -83.489120 -14.598918 2.834801 53.239624 3.466775 7.504064 171.967590 2.692687 37.625656 
40.423225 70.517525 11.453742 -25.562647 -176.573502 -4.327117 70.860245 -0.465885 4.607094 -22.451246 -2.377903 -1.056618 -10.878870 -2.709691 0.101300 -43.867481 2.868968 -7.334673 -3.413843 -5.192144 0.282785 -48.941620 -69.781799 50.376945 -68.200745 9.326495 16.204006 8.524705 12.647240 1.656847 7.531429 2.224408 -0.396538 47.033810 42.078892 32.573978 78.880135 -6.989879 21.810392 -8.534408 -12.637552 90.462746 -76.218506 6.757396 -2.423935 58.928360 -2.847026 -8.059664 -178.068619 -5.374423 -36.571072 -84.396942 -14.325757 2.753080 51.729397 3.603648 7.355713 171.315750 2.740283 37.712204 
40.441959 71.053864 11.388495 -20.616867 -176.538452 -4.478921 71.264748 -0.704096 4.284525 -22.812883 -2.429379 -0.970580 -10.709175 -2.263014 -0.012541 -44.634895 2.494409 -7.148100 -3.413843 -5.192144 0.282785 -48.667664 -68.728439 50.278458 -70.832939 9.052615 17.493345 8.524705 12.647240 2.330675 7.531429 2.224408 -0.396538 47.649380 40.815731 32.762756 80.384697 -6.301355 22.723667 -8.534408 -12.637552 92.826035 -76.254997 6.523161 -2.505067 57.588448 -3.003065 -7.928384 -179.782333 -5.995972 -36.772934 -85.115700 -14.062565 2.336900 50.354580 3.756151 7.212867 170.706665 2.683054 37.768448 
40.466618 71.595192 11.415655 -15.710291 -176.699402 -4.550586 71.508728 -0.778050 4.139101 -23.125721 -2.487029 -0.856201 -10.462349 -1.889004 -0.093683 -45.493931 2.157230 -6.870914 -3.413843 -5.192144 0.282785 -48.445591 -68.038017 50.454700 -72.790588 8.738974 18.478241 8.524705 12.647240 1.344347 7.531429 2.224408 -0.396538 47.979713 39.688358 33.312832 81.561462 -5.665327 23.496317 -8.534408 -12.637552 93.509628 -76.414818 6.356839 -2.733293 56.246552 -3.150688 -7.827767 178.415497 -6.658994 -37.029209 -85.767365 -13.789056 1.708288 49.194908 3.867196 7.105789 170.004654 2.498767 37.862274 
40.503769 72.139015 11.549270 -10.959252 -176.899078 -4.552498 71.402184 -0.823623 4.057432 -23.291985 -2.501345 -0.730782 -10.196733 -1.622772 -0.113181 -46.295509 1.984002 -6.542252 -3.413843 -5.192144 0.282785 -48.355774 -67.704498 50.845528 -74.065865 8.474847 19.132162 8.524705 12.647240 -0.862684 7.531429 2.224408 -0.396538 48.105888 38.794582 33.993942 82.404617 -5.139771 24.102320 -8.534408 -12.637552 92.630714 -76.818085 6.190967 -3.067295 54.914379 -3.285826 -7.709255 176.528625 -7.314947 -37.341927 -86.643951 -13.564146 0.977292 48.173283 3.971922 6.967189 169.230850 2.094044 37.888081 
40.558716 72.675972 11.802140 -6.470097 -177.082855 -4.485411 70.809143 -0.877443 3.951606 -23.272545 -2.442232 -0.578881 -9.912548 -1.492778 -0.116982 -47.076611 1.954463 -6.237054 -3.413843 -5.192144 0.282785 -48.431129 -67.600487 51.319935 -74.841644 8.292198 19.538734 8.524705 12.647240 -3.391981 7.531429 2.224408 -0.396538 48.113831 38.124336 34.629246 82.982079 -4.735551 24.549372 -8.534408 -12.637552 90.745956 -77.606995 6.015144 -3.434726 53.679745 -3.414643 -7.583177 174.609451 -8.002631 -37.711388 -87.958611 -13.379204 0.190365 47.346321 4.049426 6.900491 168.453491 1.453038 37.874577 
